# Blender 3.3.1
# www.blender.org
mtllib BossBarrel.mtl
o Cube
v -1.000000 1.000000 1.000000
v -1.000000 -1.000000 1.000000
v -1.000000 7.450454 1.000000
v -1.000000 11.837081 1.000000
v 0.002375 1.000000 1.000000
v 0.002375 -1.000000 1.000000
v 0.002375 7.450454 1.000000
v 0.002375 11.837081 1.000000
v -1.000000 -1.000000 0.000000
v -1.000000 1.000000 0.000000
v -1.000000 7.450454 0.000000
v -1.000000 11.837081 0.000000
v 0.002375 -1.000000 0.000000
v -1.000000 9.943185 1.000000
v 0.002375 9.943185 1.000000
v -1.000000 9.943185 0.000000
v 0.001410 15.142745 0.457869
v -0.457547 15.142745 0.457869
v -0.457547 15.142745 0.000000
v 0.001410 16.391901 0.457869
v -0.457547 16.391901 0.457869
v -0.457547 16.391901 0.000000
v -1.066192 1.000000 2.068567
v -2.068567 1.000000 2.068567
v -1.066192 7.450454 2.068567
v -2.068567 7.450454 2.068567
v -2.068567 1.000000 1.068567
v -2.068567 7.450454 1.068567
v 0.000799 17.670792 0.115251
v -0.114726 17.670792 0.115251
v 0.115777 17.670792 0.000000
v 0.115777 17.670792 0.115251
v -0.114726 17.670792 0.000000
v -0.114726 17.670792 -0.115251
v 0.000799 17.670792 -0.115251
v 0.115777 17.670792 -0.115251
v 1.000000 1.000000 1.000000
v 1.000000 -1.000000 1.000000
v 1.000000 7.450454 1.000000
v 1.000000 11.837081 1.000000
v -0.002375 1.000000 1.000000
v -0.002375 -1.000000 1.000000
v -0.002375 7.450454 1.000000
v -0.002375 11.837081 1.000000
v 1.000000 -1.000000 0.000000
v 1.000000 1.000000 0.000000
v 1.000000 7.450454 0.000000
v 1.000000 11.837081 0.000000
v -0.002375 -1.000000 0.000000
v 1.000000 9.943185 1.000000
v -0.002375 9.943185 1.000000
v 1.000000 9.943185 0.000000
v -0.001410 15.142745 0.457869
v 0.457547 15.142745 0.457869
v 0.457547 15.142745 0.000000
v -0.001410 16.391901 0.457869
v 0.457547 16.391901 0.457869
v 0.457547 16.391901 0.000000
v 1.066192 1.000000 2.068567
v 2.068567 1.000000 2.068567
v 1.066192 7.450454 2.068567
v 2.068567 7.450454 2.068567
v 2.068567 1.000000 1.068567
v 2.068567 7.450454 1.068567
v -0.000799 17.670792 0.115251
v 0.114726 17.670792 0.115251
v -0.115777 17.670792 0.000000
v -0.115777 17.670792 0.115251
v 0.114726 17.670792 0.000000
v 0.114726 17.670792 -0.115251
v -0.000799 17.670792 -0.115251
v -0.115777 17.670792 -0.115251
v -1.000000 1.000000 -1.000000
v -1.000000 -1.000000 -1.000000
v -1.000000 7.450454 -1.000000
v -1.000000 11.837081 -1.000000
v 0.002375 1.000000 -1.000000
v 0.002375 -1.000000 -1.000000
v 0.002375 7.450454 -1.000000
v 0.002375 11.837081 -1.000000
v -1.000000 9.943185 -1.000000
v 0.002375 9.943185 -1.000000
v 0.001410 15.142745 -0.457869
v -0.457547 15.142745 -0.457869
v 0.001410 16.391901 -0.457869
v -0.457547 16.391901 -0.457869
v -1.066192 1.000000 -2.068567
v -2.068567 1.000000 -2.068567
v -1.066192 7.450454 -2.068567
v -2.068567 7.450454 -2.068567
v -2.068567 1.000000 -1.068567
v -2.068567 7.450454 -1.068567
v 0.000799 17.670792 -0.115251
v -0.114726 17.670792 -0.115251
v 0.115777 17.670792 -0.115251
v -0.114726 17.670792 0.115251
v 0.000799 17.670792 0.115251
v 0.115777 17.670792 0.115251
v 1.000000 1.000000 -1.000000
v 1.000000 -1.000000 -1.000000
v 1.000000 7.450454 -1.000000
v 1.000000 11.837081 -1.000000
v -0.002375 1.000000 -1.000000
v -0.002375 -1.000000 -1.000000
v -0.002375 7.450454 -1.000000
v -0.002375 11.837081 -1.000000
v 1.000000 9.943185 -1.000000
v -0.002375 9.943185 -1.000000
v -0.001410 15.142745 -0.457869
v 0.457547 15.142745 -0.457869
v -0.001410 16.391901 -0.457869
v 0.457547 16.391901 -0.457869
v 1.066192 1.000000 -2.068567
v 2.068567 1.000000 -2.068567
v 1.066192 7.450454 -2.068567
v 2.068567 7.450454 -2.068567
v 2.068567 1.000000 -1.068567
v 2.068567 7.450454 -1.068567
v -0.000799 17.670792 -0.115251
v 0.114726 17.670792 -0.115251
v -0.115777 17.670792 -0.115251
v 0.114726 17.670792 0.115251
v -0.000799 17.670792 0.115251
v -0.115777 17.670792 0.115251
vn -0.7071 -0.0000 -0.7071
vn -0.0000 -0.0000 1.0000
vn -1.0000 -0.0000 -0.0000
vn -0.0000 -1.0000 -0.0000
vn -0.0000 0.1618 0.9868
vn -0.9868 0.1619 -0.0000
vn -0.0000 1.0000 -0.0000
vn 0.7071 -0.0000 0.7071
vn -0.0000 0.2588 0.9659
vn -0.9659 0.2589 -0.0000
vn 0.7071 -0.0000 -0.7071
vn 1.0000 -0.0000 -0.0000
vn 0.9868 0.1619 -0.0000
vn -0.7071 -0.0000 0.7071
vn 0.9659 0.2589 -0.0000
vn -0.0000 -0.0000 -1.0000
vn -0.0000 0.1618 -0.9868
vn -0.0000 0.2588 -0.9659
vt 0.799433 0.738253
vt 0.937130 0.738253
vt 0.868200 0.068930
vt 0.937130 0.543752
vt 0.799433 0.543752
vt 0.799434 0.738253
vt 0.532051 0.000000
vt 0.741568 0.000958
vt 0.868363 0.284823
vt 0.506033 0.425808
vt 0.753768 0.427386
vt 0.215893 0.000000
vt 0.868363 0.738253
vt 0.937130 0.000000
vt 0.868363 0.544982
vt 0.799434 0.835735
vt 0.799433 0.215893
vt 0.600852 0.004204
vt 0.215893 0.627310
vt 0.574834 0.430012
vt 0.896684 0.738253
vt 0.868363 0.543752
vt 0.799433 0.000163
vt 0.215893 0.000000
vt 0.868363 0.738253
vt 0.215893 0.627310
vt 0.672830 0.002925
vt 0.937130 0.216056
vt 0.685030 0.429352
vt 0.896684 0.835735
vt 0.517266 0.241968
vt 0.748501 0.243279
vt 0.586067 0.246172
vt 0.679763 0.245245
vt 0.592372 0.753160
vt 0.560870 0.751236
vt 0.688410 0.750865
vt 0.656937 0.751765
vt 0.584963 0.874415
vt 0.553461 0.872491
vt 0.691884 0.872296
vt 0.660411 0.873196
vt 0.937130 0.146963
vt 0.068930 0.000000
vt 0.000000 0.000000
vt 0.431623 0.000000
vt 0.868200 0.215893
vt 0.068930 0.627310
vt 0.799433 0.362856
vt 0.431623 0.627310
vt 0.000000 0.627310
vt 0.868363 0.355502
vt 0.362857 0.000000
vt 0.799433 0.147127
vt 0.362857 0.627310
vt 0.937130 0.363020
vt 0.011182 0.649727
vt 0.600853 0.999991
vt 0.022416 0.649727
vt 0.592923 0.999507
vt 0.648325 0.997966
vt 0.000000 0.638519
vt 0.000000 0.649727
vt 0.022416 0.638519
vt 0.640403 0.998193
vt 0.022416 0.627310
vt 0.011182 0.627310
vt 0.000000 0.627310
vt 0.799433 0.738253
vt 0.937130 0.738253
vt 0.868200 0.068930
vt 0.937130 0.543752
vt 0.799433 0.543752
vt 0.799434 0.738253
vt 0.532051 0.000000
vt 0.741568 0.000958
vt 0.868363 0.284823
vt 0.753768 0.427386
vt 0.506033 0.425808
vt 0.937130 0.000000
vt 0.215893 0.000000
vt 0.868363 0.738253
vt 0.868363 0.544982
vt 0.799434 0.835735
vt 0.799433 0.215893
vt 0.600852 0.004204
vt 0.215893 0.627310
vt 0.574834 0.430012
vt 0.896684 0.738253
vt 0.868363 0.543752
vt 0.799433 0.000163
vt 0.215893 0.000000
vt 0.868363 0.738253
vt 0.215893 0.627310
vt 0.672830 0.002925
vt 0.937130 0.216056
vt 0.685030 0.429352
vt 0.896684 0.835735
vt 0.517266 0.241968
vt 0.748501 0.243279
vt 0.586067 0.246172
vt 0.679763 0.245245
vt 0.592372 0.753160
vt 0.560870 0.751236
vt 0.688410 0.750865
vt 0.656937 0.751765
vt 0.584963 0.874415
vt 0.691884 0.872296
vt 0.553461 0.872491
vt 0.660411 0.873196
vt 0.937130 0.146963
vt 0.068930 0.000000
vt 0.000000 0.000000
vt 0.431623 0.000000
vt 0.868200 0.215893
vt 0.068930 0.627310
vt 0.799433 0.362856
vt 0.431623 0.627310
vt 0.000000 0.627310
vt 0.868363 0.355502
vt 0.362857 0.000000
vt 0.799433 0.147127
vt 0.362857 0.627310
vt 0.937130 0.363020
vt 0.011182 0.649727
vt 0.600853 0.999991
vt 0.022416 0.649727
vt 0.592923 0.999507
vt 0.648325 0.997966
vt 0.000000 0.638519
vt 0.000000 0.649727
vt 0.640403 0.998193
vt 0.022416 0.638519
vt 0.022416 0.627310
vt 0.011182 0.627310
vt 0.000000 0.627310
vt 0.799433 0.738253
vt 0.937130 0.738253
vt 0.868200 0.068930
vt 0.937130 0.543752
vt 0.799433 0.543752
vt 0.799434 0.738253
vt 0.532051 0.000000
vt 0.741568 0.000958
vt 0.868363 0.284823
vt 0.753768 0.427386
vt 0.506033 0.425808
vt 0.937130 0.000000
vt 0.215893 0.000000
vt 0.868363 0.738253
vt 0.868363 0.544982
vt 0.799434 0.835735
vt 0.799433 0.215893
vt 0.600852 0.004204
vt 0.215893 0.627310
vt 0.574834 0.430012
vt 0.517266 0.241968
vt 0.748501 0.243279
vt 0.586067 0.246172
vt 0.592372 0.753160
vt 0.560870 0.751236
vt 0.688410 0.750865
vt 0.584963 0.874415
vt 0.691884 0.872296
vt 0.553461 0.872491
vt 0.937130 0.146963
vt 0.068930 0.000000
vt 0.000000 0.000000
vt 0.431623 0.000000
vt 0.868200 0.215893
vt 0.068930 0.627310
vt 0.799433 0.362856
vt 0.431623 0.627310
vt 0.000000 0.627310
vt 0.868363 0.355502
vt 0.362857 0.000000
vt 0.799433 0.147127
vt 0.362857 0.627310
vt 0.937130 0.363020
vt 0.011182 0.649727
vt 0.600853 0.999991
vt 0.022416 0.649727
vt 0.592923 0.999507
vt 0.648325 0.997966
vt 0.000000 0.649727
vt 0.022416 0.627310
vt 0.011182 0.627310
vt 0.000000 0.627310
vt 0.799433 0.738253
vt 0.937130 0.738253
vt 0.868200 0.068930
vt 0.937130 0.543752
vt 0.799433 0.543752
vt 0.799434 0.738253
vt 0.532051 0.000000
vt 0.741568 0.000958
vt 0.868363 0.284823
vt 0.506033 0.425808
vt 0.753768 0.427386
vt 0.215893 0.000000
vt 0.868363 0.738253
vt 0.937130 0.000000
vt 0.868363 0.544982
vt 0.799434 0.835735
vt 0.799433 0.215893
vt 0.600852 0.004204
vt 0.215893 0.627310
vt 0.574834 0.430012
vt 0.517266 0.241968
vt 0.748501 0.243279
vt 0.586067 0.246172
vt 0.592372 0.753160
vt 0.560870 0.751236
vt 0.688410 0.750865
vt 0.584963 0.874415
vt 0.553461 0.872491
vt 0.691884 0.872296
vt 0.937130 0.146963
vt 0.068930 0.000000
vt 0.000000 0.000000
vt 0.431623 0.000000
vt 0.868200 0.215893
vt 0.068930 0.627310
vt 0.799433 0.362856
vt 0.431623 0.627310
vt 0.000000 0.627310
vt 0.868363 0.355502
vt 0.362857 0.000000
vt 0.799433 0.147127
vt 0.362857 0.627310
vt 0.937130 0.363020
vt 0.011182 0.649727
vt 0.600853 0.999991
vt 0.022416 0.649727
vt 0.592923 0.999507
vt 0.648325 0.997966
vt 0.000000 0.649727
vt 0.022416 0.627310
vt 0.011182 0.627310
vt 0.000000 0.627310
s 0
usemtl Material
f 10/24/1 28/55/1 11/26/1
f 5/13/2 2/5/2 6/15/2
f 14/32/3 12/29/3 16/34/3
f 15/33/2 4/10/2 14/31/2
f 1/3/4 23/43/4 24/47/4
f 13/30/4 2/6/4 9/21/4
f 1/2/3 9/22/3 2/4/3
f 7/18/2 14/31/2 3/7/2
f 3/8/3 16/34/3 11/27/3
f 18/37/3 22/42/3 19/38/3
f 8/20/5 18/36/5 4/10/5
f 12/29/6 18/37/6 19/38/6
f 17/35/2 21/40/2 18/36/2
f 24/46/3 28/55/3 27/53/3
f 23/44/2 26/51/2 24/45/2
f 3/9/7 28/56/7 26/52/7
f 7/19/8 23/44/8 5/12/8
f 3/9/7 25/49/7 7/17/7
f 1/3/4 27/54/4 10/23/4
f 33/64/7 29/57/7 31/62/7
f 20/39/9 30/60/9 21/40/9
f 22/42/10 30/61/10 33/65/10
f 64/123/11 46/92/11 47/94/11
f 38/73/2 41/82/2 42/83/2
f 48/97/12 50/100/12 52/102/12
f 40/79/2 51/101/2 50/99/2
f 37/71/4 59/111/4 41/80/4
f 38/74/4 49/98/4 45/89/4
f 45/90/12 37/70/12 38/72/12
f 50/99/2 43/86/2 39/75/2
f 52/102/12 39/76/12 47/95/12
f 58/110/12 54/105/12 55/106/12
f 54/104/5 44/88/5 40/79/5
f 48/97/13 54/105/13 40/78/13
f 57/109/2 53/103/2 54/104/2
f 64/123/12 60/114/12 63/121/12
f 62/119/2 59/112/2 60/113/2
f 39/77/7 64/124/7 47/96/7
f 59/112/14 43/87/14 41/81/14
f 61/117/7 39/77/7 43/85/7
f 63/122/4 37/71/4 46/91/4
f 65/125/7 69/133/7 71/135/7
f 66/128/9 56/107/9 57/109/9
f 58/110/15 66/129/15 57/108/15
f 92/178/14 10/24/14 11/26/14
f 74/141/16 77/150/16 78/151/16
f 12/29/3 81/158/3 16/34/3
f 76/147/16 82/159/16 81/157/16
f 73/139/4 87/166/4 77/148/4
f 74/142/4 13/30/4 9/21/4
f 9/22/3 73/138/3 74/140/3
f 81/157/16 79/154/16 75/143/16
f 16/34/3 75/144/3 11/27/3
f 22/42/3 84/162/3 19/38/3
f 84/161/17 80/156/17 76/147/17
f 12/29/6 84/162/6 76/146/6
f 86/165/16 83/160/16 84/161/16
f 92/178/3 88/169/3 91/176/3
f 90/174/16 87/167/16 88/168/16
f 75/145/7 92/179/7 11/28/7
f 87/167/11 79/155/11 77/149/11
f 89/172/7 75/145/7 79/153/7
f 91/177/4 73/139/4 10/23/4
f 93/180/7 33/64/7 97/187/7
f 94/183/18 85/163/18 86/165/18
f 22/42/10 94/184/10 86/164/10
f 46/92/8 118/230/8 47/94/8
f 103/201/16 100/193/16 104/203/16
f 107/210/12 48/97/12 52/102/12
f 108/211/16 102/198/16 107/209/16
f 99/191/4 113/218/4 114/222/4
f 49/98/4 100/194/4 45/89/4
f 99/190/12 45/90/12 100/192/12
f 105/206/16 107/209/16 101/195/16
f 101/196/12 52/102/12 47/95/12
f 110/214/12 58/110/12 55/106/12
f 106/208/17 110/213/17 102/198/17
f 48/97/13 110/214/13 55/106/13
f 109/212/16 112/216/16 110/213/16
f 114/221/12 118/230/12 117/228/12
f 113/219/16 116/226/16 114/220/16
f 101/197/7 118/231/7 116/227/7
f 105/207/1 113/219/1 103/200/1
f 101/197/7 115/224/7 105/205/7
f 99/191/4 117/229/4 46/91/4
f 69/133/7 119/232/7 67/130/7
f 111/215/18 120/235/18 112/216/18
f 58/110/15 120/236/15 69/132/15
f 10/24/1 27/53/1 28/55/1
f 5/13/2 1/1/2 2/5/2
f 14/32/3 4/11/3 12/29/3
f 15/33/2 8/20/2 4/10/2
f 1/3/4 5/14/4 23/43/4
f 13/30/4 6/16/4 2/6/4
f 1/2/3 10/25/3 9/22/3
f 7/18/2 15/33/2 14/31/2
f 3/8/3 14/32/3 16/34/3
f 18/37/3 21/41/3 22/42/3
f 8/20/5 17/35/5 18/36/5
f 12/29/6 4/11/6 18/37/6
f 17/35/2 20/39/2 21/40/2
f 24/46/3 26/50/3 28/55/3
f 23/44/2 25/48/2 26/51/2
f 3/9/7 11/28/7 28/56/7
f 7/19/8 25/48/8 23/44/8
f 3/9/7 26/52/7 25/49/7
f 1/3/4 24/47/4 27/54/4
f 31/62/7 36/68/7 35/67/7
f 35/67/7 34/66/7 33/64/7
f 33/64/7 30/59/7 29/57/7
f 29/57/7 32/63/7 31/62/7
f 31/62/7 35/67/7 33/64/7
f 20/39/9 29/58/9 30/60/9
f 22/42/10 21/41/10 30/61/10
f 64/123/11 63/121/11 46/92/11
f 38/73/2 37/69/2 41/82/2
f 48/97/12 40/78/12 50/100/12
f 40/79/2 44/88/2 51/101/2
f 37/71/4 60/115/4 59/111/4
f 38/74/4 42/84/4 49/98/4
f 45/90/12 46/93/12 37/70/12
f 50/99/2 51/101/2 43/86/2
f 52/102/12 50/100/12 39/76/12
f 58/110/12 57/108/12 54/105/12
f 54/104/5 53/103/5 44/88/5
f 48/97/13 55/106/13 54/105/13
f 57/109/2 56/107/2 53/103/2
f 64/123/12 62/118/12 60/114/12
f 62/119/2 61/116/2 59/112/2
f 39/77/7 62/120/7 64/124/7
f 59/112/14 61/116/14 43/87/14
f 61/117/7 62/120/7 39/77/7
f 63/122/4 60/115/4 37/71/4
f 71/135/7 72/136/7 67/130/7
f 67/130/7 68/131/7 65/125/7
f 65/125/7 66/127/7 69/133/7
f 69/133/7 70/134/7 71/135/7
f 71/135/7 67/130/7 65/125/7
f 66/128/9 65/126/9 56/107/9
f 58/110/15 69/132/15 66/129/15
f 92/178/14 91/176/14 10/24/14
f 74/141/16 73/137/16 77/150/16
f 12/29/3 76/146/3 81/158/3
f 76/147/16 80/156/16 82/159/16
f 73/139/4 88/170/4 87/166/4
f 74/142/4 78/152/4 13/30/4
f 9/22/3 10/25/3 73/138/3
f 81/157/16 82/159/16 79/154/16
f 16/34/3 81/158/3 75/144/3
f 22/42/3 86/164/3 84/162/3
f 84/161/17 83/160/17 80/156/17
f 12/29/6 19/38/6 84/162/6
f 86/165/16 85/163/16 83/160/16
f 92/178/3 90/173/3 88/169/3
f 90/174/16 89/171/16 87/167/16
f 75/145/7 90/175/7 92/179/7
f 87/167/11 89/171/11 79/155/11
f 89/172/7 90/175/7 75/145/7
f 91/177/4 88/170/4 73/139/4
f 97/187/7 98/188/7 31/62/7
f 31/62/7 95/185/7 93/180/7
f 93/180/7 94/182/7 33/64/7
f 33/64/7 96/186/7 97/187/7
f 97/187/7 31/62/7 93/180/7
f 94/183/18 93/181/18 85/163/18
f 22/42/10 33/65/10 94/184/10
f 46/92/8 117/228/8 118/230/8
f 103/201/16 99/189/16 100/193/16
f 107/210/12 102/199/12 48/97/12
f 108/211/16 106/208/16 102/198/16
f 99/191/4 103/202/4 113/218/4
f 49/98/4 104/204/4 100/194/4
f 99/190/12 46/93/12 45/90/12
f 105/206/16 108/211/16 107/209/16
f 101/196/12 107/210/12 52/102/12
f 110/214/12 112/217/12 58/110/12
f 106/208/17 109/212/17 110/213/17
f 48/97/13 102/199/13 110/214/13
f 109/212/16 111/215/16 112/216/16
f 114/221/12 116/225/12 118/230/12
f 113/219/16 115/223/16 116/226/16
f 101/197/7 47/96/7 118/231/7
f 105/207/1 115/223/1 113/219/1
f 101/197/7 116/227/7 115/224/7
f 99/191/4 114/222/4 117/229/4
f 67/130/7 124/240/7 123/239/7
f 123/239/7 122/238/7 69/133/7
f 69/133/7 120/234/7 119/232/7
f 119/232/7 121/237/7 67/130/7
f 67/130/7 123/239/7 69/133/7
f 111/215/18 119/233/18 120/235/18
f 58/110/15 112/217/15 120/236/15
