# Blender 3.3.1
# www.blender.org
mtllib BossBarrel.mtl
o Cube
v 1.000000 1.000000 -1.000000
v 1.000000 -1.000000 -1.000000
v 1.000000 1.000000 1.000000
v 1.000000 -1.000000 1.000000
v -1.000000 1.000000 -1.000000
v -1.000000 -1.000000 -1.000000
v -1.000000 1.000000 1.000000
v -1.000000 -1.000000 1.000000
vn -0.0000 1.0000 -0.0000
vn -0.0000 -0.0000 1.0000
vn -1.0000 -0.0000 -0.0000
vn -0.0000 -1.0000 -0.0000
vn 1.0000 -0.0000 -0.0000
vn -0.0000 -0.0000 -1.0000
vt 0.625000 0.500000
vt 0.375000 0.500000
vt 0.625000 0.750000
vt 0.375000 0.750000
vt 0.875000 0.500000
vt 0.625000 0.250000
vt 0.125000 0.500000
vt 0.375000 0.250000
vt 0.875000 0.750000
vt 0.625000 1.000000
vt 0.625000 0.000000
vt 0.375000 1.000000
vt 0.375000 0.000000
vt 0.125000 0.750000
s 0
usemtl Material
f 1/1/1 5/5/1 7/9/1 3/3/1
f 4/4/2 3/3/2 7/10/2 8/12/2
f 8/13/3 7/11/3 5/6/3 6/8/3
f 6/7/4 2/2/4 4/4/4 8/14/4
f 2/2/5 1/1/5 3/3/5 4/4/5
f 6/8/6 5/6/6 1/1/6 2/2/6
o Cube.001
v 1.000000 1.000000 1.000000
v 1.000000 1.000000 -1.000000
v 1.000001 1.000000 7.450454
v 1.000001 1.000000 11.837081
v -0.002375 1.000000 1.000000
v -0.002375 1.000000 -1.000000
v -0.002374 1.000000 7.450454
v -0.002374 1.000000 11.837081
v 1.000000 0.000000 -1.000000
v 1.000000 0.000000 1.000000
v 1.000001 0.000000 7.450454
v 1.000001 0.000000 11.837081
v -0.002375 0.000000 -1.000000
v 1.000001 1.000000 9.943185
v -0.002374 1.000000 9.943185
v 1.000001 0.000000 9.943185
v -0.001409 0.457869 15.142745
v 0.457548 0.457869 15.142745
v 0.457548 0.000000 15.142745
v -0.001409 0.457869 16.391901
v 0.457548 0.457869 16.391901
v 0.457548 0.000000 16.391901
v 1.066192 2.068567 1.000000
v 2.068567 2.068567 1.000000
v 1.066193 2.068567 7.450454
v 2.068568 2.068567 7.450454
v 2.068567 1.068567 1.000000
v 2.068568 1.068567 7.450454
v -0.000797 0.115251 17.670792
v 0.114728 0.115251 17.670792
v -0.115775 0.000000 17.670792
v -0.115775 0.115251 17.670792
v 0.114728 0.000000 17.670792
v 0.114728 -0.115251 17.670792
v -0.000797 -0.115251 17.670792
v -0.115775 -0.115251 17.670792
v -1.000000 1.000000 1.000000
v -1.000000 1.000000 -1.000000
v -0.999999 1.000000 7.450454
v -0.999999 1.000000 11.837081
v 0.002375 1.000000 1.000000
v 0.002375 1.000000 -1.000000
v 0.002376 1.000000 7.450454
v 0.002376 1.000000 11.837081
v -1.000000 0.000000 -1.000000
v -1.000000 0.000000 1.000000
v -0.999999 0.000000 7.450454
v -0.999999 0.000000 11.837081
v 0.002375 0.000000 -1.000000
v -0.999999 1.000000 9.943185
v 0.002376 1.000000 9.943185
v -0.999999 0.000000 9.943185
v 0.001411 0.457869 15.142745
v -0.457546 0.457869 15.142745
v -0.457546 0.000000 15.142745
v 0.001411 0.457869 16.391901
v -0.457546 0.457869 16.391901
v -0.457546 0.000000 16.391901
v -1.066192 2.068567 1.000000
v -2.068567 2.068567 1.000000
v -1.066191 2.068567 7.450454
v -2.068566 2.068567 7.450454
v -2.068567 1.068567 1.000000
v -2.068566 1.068567 7.450454
v 0.000801 0.115251 17.670792
v -0.114724 0.115251 17.670792
v 0.115779 0.000000 17.670792
v 0.115779 0.115251 17.670792
v -0.114724 0.000000 17.670792
v -0.114724 -0.115251 17.670792
v 0.000801 -0.115251 17.670792
v 0.115779 -0.115251 17.670792
v 1.000000 -1.000000 1.000000
v 1.000000 -1.000000 -1.000000
v 1.000001 -1.000000 7.450454
v 1.000001 -1.000000 11.837081
v -0.002375 -1.000000 1.000000
v -0.002375 -1.000000 -1.000000
v -0.002374 -1.000000 7.450454
v -0.002374 -1.000000 11.837081
v 1.000001 -1.000000 9.943185
v -0.002374 -1.000000 9.943185
v -0.001409 -0.457869 15.142745
v 0.457548 -0.457869 15.142745
v -0.001409 -0.457869 16.391901
v 0.457548 -0.457869 16.391901
v 1.066192 -2.068567 1.000000
v 2.068567 -2.068567 1.000000
v 1.066193 -2.068567 7.450454
v 2.068568 -2.068567 7.450454
v 2.068567 -1.068567 1.000000
v 2.068568 -1.068567 7.450454
v -0.000797 -0.115251 17.670792
v 0.114728 -0.115251 17.670792
v -0.115775 -0.115251 17.670792
v 0.114728 0.115251 17.670792
v -0.000797 0.115251 17.670792
v -0.115775 0.115251 17.670792
v -1.000000 -1.000000 1.000000
v -1.000000 -1.000000 -1.000000
v -0.999999 -1.000000 7.450454
v -0.999999 -1.000000 11.837081
v 0.002375 -1.000000 1.000000
v 0.002375 -1.000000 -1.000000
v 0.002376 -1.000000 7.450454
v 0.002376 -1.000000 11.837081
v -0.999999 -1.000000 9.943185
v 0.002376 -1.000000 9.943185
v 0.001411 -0.457869 15.142745
v -0.457546 -0.457869 15.142745
v 0.001411 -0.457869 16.391901
v -0.457546 -0.457869 16.391901
v -1.066192 -2.068567 1.000000
v -2.068567 -2.068567 1.000000
v -1.066191 -2.068567 7.450454
v -2.068566 -2.068567 7.450454
v -2.068567 -1.068567 1.000000
v -2.068566 -1.068567 7.450454
v 0.000801 -0.115251 17.670792
v -0.114724 -0.115251 17.670792
v 0.115779 -0.115251 17.670792
v -0.114724 0.115251 17.670792
v 0.000801 0.115251 17.670792
v 0.115779 0.115251 17.670792
vn 0.7071 -0.7071 -0.0000
vn -0.0000 1.0000 -0.0000
vn 1.0000 -0.0000 -0.0000
vn -0.0000 -0.0000 -1.0000
vn -0.0000 0.9868 0.1618
vn 0.9868 -0.0000 0.1619
vn -0.0000 -0.0000 1.0000
vn -0.7071 0.7071 -0.0000
vn -0.0000 0.9659 0.2588
vn 0.9659 -0.0000 0.2589
vn -0.7071 -0.7071 -0.0000
vn -1.0000 -0.0000 -0.0000
vn -0.9868 -0.0000 0.1619
vn 0.7071 0.7071 -0.0000
vn -0.9659 -0.0000 0.2589
vn -0.0000 -1.0000 -0.0000
vn -0.0000 -0.9868 0.1618
vn -0.0000 -0.9659 0.2588
vt 0.799433 0.738253
vt 0.937130 0.738253
vt 0.868200 0.068930
vt 0.937130 0.543752
vt 0.799433 0.543752
vt 0.799434 0.738253
vt 0.532051 0.000000
vt 0.741568 0.000958
vt 0.868363 0.284823
vt 0.506033 0.425808
vt 0.753768 0.427386
vt 0.215893 0.000000
vt 0.868363 0.738253
vt 0.937130 0.000000
vt 0.868363 0.544982
vt 0.799434 0.835735
vt 0.799433 0.215893
vt 0.600852 0.004204
vt 0.215893 0.627310
vt 0.574834 0.430012
vt 0.896684 0.738253
vt 0.868363 0.543752
vt 0.799433 0.000163
vt 0.215893 0.000000
vt 0.868363 0.738253
vt 0.215893 0.627310
vt 0.672830 0.002925
vt 0.937130 0.216056
vt 0.685030 0.429352
vt 0.896684 0.835735
vt 0.517266 0.241968
vt 0.748501 0.243279
vt 0.586067 0.246172
vt 0.679763 0.245245
vt 0.592372 0.753160
vt 0.560870 0.751236
vt 0.688410 0.750865
vt 0.656937 0.751765
vt 0.584963 0.874415
vt 0.553461 0.872491
vt 0.691884 0.872296
vt 0.660411 0.873196
vt 0.937130 0.146963
vt 0.068930 0.000000
vt 0.000000 0.000000
vt 0.431623 0.000000
vt 0.868200 0.215893
vt 0.068930 0.627310
vt 0.799433 0.362856
vt 0.431623 0.627310
vt 0.000000 0.627310
vt 0.868363 0.355502
vt 0.362857 0.000000
vt 0.799433 0.147127
vt 0.362857 0.627310
vt 0.937130 0.363020
vt 0.011182 0.649727
vt 0.600853 0.999991
vt 0.022416 0.649727
vt 0.592923 0.999507
vt 0.648325 0.997966
vt 0.000000 0.638519
vt 0.000000 0.649727
vt 0.022416 0.638519
vt 0.640403 0.998193
vt 0.022416 0.627310
vt 0.011182 0.627310
vt 0.000000 0.627310
vt 0.799433 0.738253
vt 0.937130 0.738253
vt 0.868200 0.068930
vt 0.937130 0.543752
vt 0.799433 0.543752
vt 0.799434 0.738253
vt 0.532051 0.000000
vt 0.741568 0.000958
vt 0.868363 0.284823
vt 0.753768 0.427386
vt 0.506033 0.425808
vt 0.937130 0.000000
vt 0.215893 0.000000
vt 0.868363 0.738253
vt 0.868363 0.544982
vt 0.799434 0.835735
vt 0.799433 0.215893
vt 0.600852 0.004204
vt 0.215893 0.627310
vt 0.574834 0.430012
vt 0.896684 0.738253
vt 0.868363 0.543752
vt 0.799433 0.000163
vt 0.215893 0.000000
vt 0.868363 0.738253
vt 0.215893 0.627310
vt 0.672830 0.002925
vt 0.937130 0.216056
vt 0.685030 0.429352
vt 0.896684 0.835735
vt 0.517266 0.241968
vt 0.748501 0.243279
vt 0.586067 0.246172
vt 0.679763 0.245245
vt 0.592372 0.753160
vt 0.560870 0.751236
vt 0.688410 0.750865
vt 0.656937 0.751765
vt 0.584963 0.874415
vt 0.691884 0.872296
vt 0.553461 0.872491
vt 0.660411 0.873196
vt 0.937130 0.146963
vt 0.068930 0.000000
vt 0.000000 0.000000
vt 0.431623 0.000000
vt 0.868200 0.215893
vt 0.068930 0.627310
vt 0.799433 0.362856
vt 0.431623 0.627310
vt 0.000000 0.627310
vt 0.868363 0.355502
vt 0.362857 0.000000
vt 0.799433 0.147127
vt 0.362857 0.627310
vt 0.937130 0.363020
vt 0.011182 0.649727
vt 0.600853 0.999991
vt 0.022416 0.649727
vt 0.592923 0.999507
vt 0.648325 0.997966
vt 0.000000 0.638519
vt 0.000000 0.649727
vt 0.640403 0.998193
vt 0.022416 0.638519
vt 0.022416 0.627310
vt 0.011182 0.627310
vt 0.000000 0.627310
vt 0.799433 0.738253
vt 0.937130 0.738253
vt 0.868200 0.068930
vt 0.937130 0.543752
vt 0.799433 0.543752
vt 0.799434 0.738253
vt 0.532051 0.000000
vt 0.741568 0.000958
vt 0.868363 0.284823
vt 0.753768 0.427386
vt 0.506033 0.425808
vt 0.937130 0.000000
vt 0.215893 0.000000
vt 0.868363 0.738253
vt 0.868363 0.544982
vt 0.799434 0.835735
vt 0.799433 0.215893
vt 0.600852 0.004204
vt 0.215893 0.627310
vt 0.574834 0.430012
vt 0.517266 0.241968
vt 0.748501 0.243279
vt 0.586067 0.246172
vt 0.592372 0.753160
vt 0.560870 0.751236
vt 0.688410 0.750865
vt 0.584963 0.874415
vt 0.691884 0.872296
vt 0.553461 0.872491
vt 0.937130 0.146963
vt 0.068930 0.000000
vt 0.000000 0.000000
vt 0.431623 0.000000
vt 0.868200 0.215893
vt 0.068930 0.627310
vt 0.799433 0.362856
vt 0.431623 0.627310
vt 0.000000 0.627310
vt 0.868363 0.355502
vt 0.362857 0.000000
vt 0.799433 0.147127
vt 0.362857 0.627310
vt 0.937130 0.363020
vt 0.011182 0.649727
vt 0.600853 0.999991
vt 0.022416 0.649727
vt 0.592923 0.999507
vt 0.648325 0.997966
vt 0.000000 0.649727
vt 0.022416 0.627310
vt 0.011182 0.627310
vt 0.000000 0.627310
vt 0.799433 0.738253
vt 0.937130 0.738253
vt 0.868200 0.068930
vt 0.937130 0.543752
vt 0.799433 0.543752
vt 0.799434 0.738253
vt 0.532051 0.000000
vt 0.741568 0.000958
vt 0.868363 0.284823
vt 0.506033 0.425808
vt 0.753768 0.427386
vt 0.215893 0.000000
vt 0.868363 0.738253
vt 0.937130 0.000000
vt 0.868363 0.544982
vt 0.799434 0.835735
vt 0.799433 0.215893
vt 0.600852 0.004204
vt 0.215893 0.627310
vt 0.574834 0.430012
vt 0.517266 0.241968
vt 0.748501 0.243279
vt 0.586067 0.246172
vt 0.592372 0.753160
vt 0.560870 0.751236
vt 0.688410 0.750865
vt 0.584963 0.874415
vt 0.553461 0.872491
vt 0.691884 0.872296
vt 0.937130 0.146963
vt 0.068930 0.000000
vt 0.000000 0.000000
vt 0.431623 0.000000
vt 0.868200 0.215893
vt 0.068930 0.627310
vt 0.799433 0.362856
vt 0.431623 0.627310
vt 0.000000 0.627310
vt 0.868363 0.355502
vt 0.362857 0.000000
vt 0.799433 0.147127
vt 0.362857 0.627310
vt 0.937130 0.363020
vt 0.011182 0.649727
vt 0.600853 0.999991
vt 0.022416 0.649727
vt 0.592923 0.999507
vt 0.648325 0.997966
vt 0.000000 0.649727
vt 0.022416 0.627310
vt 0.011182 0.627310
vt 0.000000 0.627310
s 0
usemtl Material.001
f 18/38/7 36/69/7 19/40/7
f 13/27/8 10/19/8 14/29/8
f 22/46/9 20/43/9 24/48/9
f 23/47/8 12/24/8 22/45/8
f 9/17/10 31/57/10 32/61/10
f 21/44/10 10/20/10 17/35/10
f 9/16/9 17/36/9 10/18/9
f 15/32/8 22/45/8 11/21/8
f 11/22/9 24/48/9 19/41/9
f 26/51/9 30/56/9 27/52/9
f 16/34/11 26/50/11 12/24/11
f 20/43/12 26/51/12 27/52/12
f 25/49/8 29/54/8 26/50/8
f 32/60/9 36/69/9 35/67/9
f 31/58/8 34/65/8 32/59/8
f 11/23/13 36/70/13 34/66/13
f 15/33/14 31/58/14 13/26/14
f 11/23/13 33/63/13 15/31/13
f 9/17/10 35/68/10 18/37/10
f 41/78/13 37/71/13 39/76/13
f 28/53/15 38/74/15 29/54/15
f 30/56/16 38/75/16 41/79/16
f 72/137/17 54/106/17 55/108/17
f 46/87/8 49/96/8 50/97/8
f 56/111/18 58/114/18 60/116/18
f 48/93/8 59/115/8 58/113/8
f 45/85/10 67/125/10 49/94/10
f 46/88/10 57/112/10 53/103/10
f 53/104/18 45/84/18 46/86/18
f 58/113/8 51/100/8 47/89/8
f 60/116/18 47/90/18 55/109/18
f 66/124/18 62/119/18 63/120/18
f 62/118/11 52/102/11 48/93/11
f 56/111/19 62/119/19 48/92/19
f 65/123/8 61/117/8 62/118/8
f 72/137/18 68/128/18 71/135/18
f 70/133/8 67/126/8 68/127/8
f 47/91/13 72/138/13 55/110/13
f 67/126/20 51/101/20 49/95/20
f 69/131/13 47/91/13 51/99/13
f 71/136/10 45/85/10 54/105/10
f 73/139/13 77/147/13 79/149/13
f 74/142/15 64/121/15 65/123/15
f 66/124/21 74/143/21 65/122/21
f 100/192/20 18/38/20 19/40/20
f 82/155/22 85/164/22 86/165/22
f 20/43/9 89/172/9 24/48/9
f 84/161/22 90/173/22 89/171/22
f 81/153/10 95/180/10 85/162/10
f 82/156/10 21/44/10 17/35/10
f 17/36/9 81/152/9 82/154/9
f 89/171/22 87/168/22 83/157/22
f 24/48/9 83/158/9 19/41/9
f 30/56/9 92/176/9 27/52/9
f 92/175/23 88/170/23 84/161/23
f 20/43/12 92/176/12 84/160/12
f 94/179/22 91/174/22 92/175/22
f 100/192/9 96/183/9 99/190/9
f 98/188/22 95/181/22 96/182/22
f 83/159/13 100/193/13 19/42/13
f 95/181/17 87/169/17 85/163/17
f 97/186/13 83/159/13 87/167/13
f 99/191/10 81/153/10 18/37/10
f 101/194/13 41/78/13 105/201/13
f 102/197/24 93/177/24 94/179/24
f 30/56/16 102/198/16 94/178/16
f 54/106/14 126/244/14 55/108/14
f 111/215/22 108/207/22 112/217/22
f 115/224/18 56/111/18 60/116/18
f 116/225/22 110/212/22 115/223/22
f 107/205/10 121/232/10 122/236/10
f 57/112/10 108/208/10 53/103/10
f 107/204/18 53/104/18 108/206/18
f 113/220/22 115/223/22 109/209/22
f 109/210/18 60/116/18 55/109/18
f 118/228/18 66/124/18 63/120/18
f 114/222/23 118/227/23 110/212/23
f 56/111/19 118/228/19 63/120/19
f 117/226/22 120/230/22 118/227/22
f 122/235/18 126/244/18 125/242/18
f 121/233/22 124/240/22 122/234/22
f 109/211/13 126/245/13 124/241/13
f 113/221/7 121/233/7 111/214/7
f 109/211/13 123/238/13 113/219/13
f 107/205/10 125/243/10 54/105/10
f 77/147/13 127/246/13 75/144/13
f 119/229/24 128/249/24 120/230/24
f 66/124/21 128/250/21 77/146/21
f 18/38/7 35/67/7 36/69/7
f 13/27/8 9/15/8 10/19/8
f 22/46/9 12/25/9 20/43/9
f 23/47/8 16/34/8 12/24/8
f 9/17/10 13/28/10 31/57/10
f 21/44/10 14/30/10 10/20/10
f 9/16/9 18/39/9 17/36/9
f 15/32/8 23/47/8 22/45/8
f 11/22/9 22/46/9 24/48/9
f 26/51/9 29/55/9 30/56/9
f 16/34/11 25/49/11 26/50/11
f 20/43/12 12/25/12 26/51/12
f 25/49/8 28/53/8 29/54/8
f 32/60/9 34/64/9 36/69/9
f 31/58/8 33/62/8 34/65/8
f 11/23/13 19/42/13 36/70/13
f 15/33/14 33/62/14 31/58/14
f 11/23/13 34/66/13 33/63/13
f 9/17/10 32/61/10 35/68/10
f 39/76/13 44/82/13 43/81/13
f 43/81/13 42/80/13 41/78/13
f 41/78/13 38/73/13 37/71/13
f 37/71/13 40/77/13 39/76/13
f 39/76/13 43/81/13 41/78/13
f 28/53/15 37/72/15 38/74/15
f 30/56/16 29/55/16 38/75/16
f 72/137/17 71/135/17 54/106/17
f 46/87/8 45/83/8 49/96/8
f 56/111/18 48/92/18 58/114/18
f 48/93/8 52/102/8 59/115/8
f 45/85/10 68/129/10 67/125/10
f 46/88/10 50/98/10 57/112/10
f 53/104/18 54/107/18 45/84/18
f 58/113/8 59/115/8 51/100/8
f 60/116/18 58/114/18 47/90/18
f 66/124/18 65/122/18 62/119/18
f 62/118/11 61/117/11 52/102/11
f 56/111/19 63/120/19 62/119/19
f 65/123/8 64/121/8 61/117/8
f 72/137/18 70/132/18 68/128/18
f 70/133/8 69/130/8 67/126/8
f 47/91/13 70/134/13 72/138/13
f 67/126/20 69/130/20 51/101/20
f 69/131/13 70/134/13 47/91/13
f 71/136/10 68/129/10 45/85/10
f 79/149/13 80/150/13 75/144/13
f 75/144/13 76/145/13 73/139/13
f 73/139/13 74/141/13 77/147/13
f 77/147/13 78/148/13 79/149/13
f 79/149/13 75/144/13 73/139/13
f 74/142/15 73/140/15 64/121/15
f 66/124/21 77/146/21 74/143/21
f 100/192/20 99/190/20 18/38/20
f 82/155/22 81/151/22 85/164/22
f 20/43/9 84/160/9 89/172/9
f 84/161/22 88/170/22 90/173/22
f 81/153/10 96/184/10 95/180/10
f 82/156/10 86/166/10 21/44/10
f 17/36/9 18/39/9 81/152/9
f 89/171/22 90/173/22 87/168/22
f 24/48/9 89/172/9 83/158/9
f 30/56/9 94/178/9 92/176/9
f 92/175/23 91/174/23 88/170/23
f 20/43/12 27/52/12 92/176/12
f 94/179/22 93/177/22 91/174/22
f 100/192/9 98/187/9 96/183/9
f 98/188/22 97/185/22 95/181/22
f 83/159/13 98/189/13 100/193/13
f 95/181/17 97/185/17 87/169/17
f 97/186/13 98/189/13 83/159/13
f 99/191/10 96/184/10 81/153/10
f 105/201/13 106/202/13 39/76/13
f 39/76/13 103/199/13 101/194/13
f 101/194/13 102/196/13 41/78/13
f 41/78/13 104/200/13 105/201/13
f 105/201/13 39/76/13 101/194/13
f 102/197/24 101/195/24 93/177/24
f 30/56/16 41/79/16 102/198/16
f 54/106/14 125/242/14 126/244/14
f 111/215/22 107/203/22 108/207/22
f 115/224/18 110/213/18 56/111/18
f 116/225/22 114/222/22 110/212/22
f 107/205/10 111/216/10 121/232/10
f 57/112/10 112/218/10 108/208/10
f 107/204/18 54/107/18 53/104/18
f 113/220/22 116/225/22 115/223/22
f 109/210/18 115/224/18 60/116/18
f 118/228/18 120/231/18 66/124/18
f 114/222/23 117/226/23 118/227/23
f 56/111/19 110/213/19 118/228/19
f 117/226/22 119/229/22 120/230/22
f 122/235/18 124/239/18 126/244/18
f 121/233/22 123/237/22 124/240/22
f 109/211/13 55/110/13 126/245/13
f 113/221/7 123/237/7 121/233/7
f 109/211/13 124/241/13 123/238/13
f 107/205/10 122/236/10 125/243/10
f 75/144/13 132/254/13 131/253/13
f 131/253/13 130/252/13 77/147/13
f 77/147/13 128/248/13 127/246/13
f 127/246/13 129/251/13 75/144/13
f 75/144/13 131/253/13 77/147/13
f 119/229/24 127/247/24 128/249/24
f 66/124/21 120/231/21 128/250/21
